# xmcd
# 
# Track frame offsets:
#     150
#     27810
#     80800
#     104977
#     135255
# 
# Disc length: 2245
# 
# Revision: 8
# Processed by: cddbd v1.5.2PL0 Copyright (c) Steve Scherf et al.
# Submitted via: fre:ac v1.0.17
# 
DISCID=3d08c305
DTITLE=Traffic - Shoot Out At The Fantasy Factory
DYEAR=1973
DGENRE=Rock
TTITLE0=Shoot Out At The Fantasy Factory
TTITLE1=Roll Right Stones
TTITLE2=Evening Blue
TTITLE3=Tragic Magic
TTITLE4=(Sometimes I Feel So) Uninspired
EXTD=YEAR: 1973
EXTT0=
EXTT1=
EXTT2=
EXTT3=
EXTT4=
PLAYORDER=
